<?xml version="1.0" encoding="utf-8"?>
<svg width="425.601px" height="274.4px" viewBox="0 0 425.601 274.4" version="1.1" xmlns:xlink="http://www.w3.org/1999/xlink" xmlns="http://www.w3.org/2000/svg">
  <defs>
    <path d="M425.601 0L425.601 0L425.601 274.4L0 274.4L0 0L425.601 0Z" id="path_1" />
    <clipPath id="clip_1">
      <use xlink:href="#path_1" clip-rule="evenodd" fill-rule="evenodd" />
    </clipPath>
  </defs>
  <g id="ein">
    <path d="M425.601 0L425.601 0L425.601 274.4L0 274.4L0 0L425.601 0Z" id="ein" fill="none" stroke="none" />
    <path d="M162.833 159.104L161.601 160C157.868 168.533 152.001 175.467 144.001 180.8C136.001 186.133 128.534 192 121.601 198.4L121.601 199.2L119.201 197.6L118.401 197.6L104.001 211.2L104.001 212L99.201 209.6C99.0688 209.666 98.9371 209.734 98.806 209.802C96.8527 210.817 95.251 211.95 94.001 213.2C92.6677 214.533 90.6677 215.733 88.001 216.8L84.801 216L84.801 218.4L80.001 218.4L80.001 223.2C73.601 225.867 66.9343 227.467 60.001 228L57.601 232L56.801 231.2C56.2978 231.128 55.7935 231.066 55.2881 231.012C51.7994 230.639 47.5037 230.568 42.401 230.8C41.8767 230.824 41.3519 230.836 40.827 230.836C35.6703 230.836 31.395 229.624 28.001 227.2C27.7911 226.781 27.5911 226.357 27.401 225.929C26.201 223.22 25.601 220.71 25.601 218.4C25.601 210.933 27.3343 202.8 30.801 194C31.4112 192.449 32.0421 190.907 32.6933 189.373C34.0898 186.087 35.5077 183.032 36.947 180.208C38.3673 177.4 39.9204 174.661 41.601 172L41.601 170.4C45.8177 170.4 51.2053 169.573 57.764 167.92C60.529 167.217 63.2754 166.444 66.0007 165.6C69.9853 164.371 73.9253 163.001 77.8133 161.494C84.696 158.815 91.4345 155.78 98.0011 152.4C102.673 150.018 107.23 147.416 111.655 144.601C116.683 141.414 121.478 137.871 126.001 134C127.91 132.373 129.695 130.608 131.343 128.718C133.052 126.733 134.411 124.761 135.42 122.8C136.812 120.216 137.56 117.335 137.601 114.4C137.582 111.836 137.161 109.29 136.354 106.856C135.549 104.355 134.353 101.791 132.766 99.164C131.227 96.6494 129.501 94.2546 127.601 92C120.934 84 113.868 79.2 106.401 77.6L106.401 79.2C102.767 79.2316 99.1559 79.7794 95.676 80.827C92.1747 81.8457 88.5383 83.343 84.767 85.319C81.032 87.301 77.4351 89.5331 74.001 92C62.001 100.533 50.2677 111.2 38.801 124C34.6157 128.662 30.6128 133.484 26.8012 138.456C20.8691 146.161 15.5208 154.298 10.8009 162.8C3.60097 175.867 0.001 187.2 0.001 196.8C0.001 203.2 1.33433 209.2 4.001 214.8C5.06013 217.031 5.98153 219.324 6.76002 221.668C8.04235 225.558 8.99275 229.55 9.601 233.6C9.91822 233.838 10.2337 234.078 10.5474 234.321C14.6665 237.504 19.8177 242.064 26.001 248C32.6677 254.4 38.401 257.6 43.201 257.6C56.5343 257.6 68.6677 253.6 79.601 245.6C90.5343 237.6 101.068 230.133 111.201 223.2L112.001 219.2L114.401 219.2C122.934 211.733 131.334 204.533 139.601 197.6C147.868 190.667 154.134 182.133 158.401 172C158.723 171.909 159.042 171.809 159.358 171.7M58.401 155.2L60.001 155.2L60.001 153.6C61.0488 153.289 62.079 152.921 63.087 152.498C66.9503 150.916 72.455 148.083 79.601 144C88.9343 138.667 97.8677 132.933 106.401 126.8C107.881 125.739 109.341 124.65 110.779 123.533C116.494 119.078 119.568 115.767 120.001 113.6L120.801 113.6L120.001 109.6L120.801 105.6C120.365 105.6 119.573 105.511 118.426 105.333C118.151 105.29 117.876 105.246 117.601 105.2C116.001 104.933 114.668 104.8 113.601 104.8C106.668 109.6 99.7343 114.133 92.801 118.4L72.001 131.2L70.401 131.2L69.601 137.6C66.401 139.733 64.001 142.267 62.401 145.2C61.388 147.071 60.5098 149.012 59.773 151.008C59.261 152.387 58.8033 153.785 58.401 155.2L58.401 155.2ZM159.358 171.7C159.096 172.628 158.83 173.555 158.559 174.481C156.64 181.021 154.72 186.594 152.801 191.2L153.601 192L148.001 205.6L146.401 220C145.868 224.8 145.601 229.6 145.601 234.4C145.601 238.133 146.134 241.733 147.201 245.2C148.268 248.667 149.068 252.267 149.601 256L162.401 274.4L163.201 272.8C163.201 269.067 162.534 265.6 161.201 262.4C160.857 261.574 160.557 260.73 160.302 259.872C159.556 257.315 159.186 254.663 159.201 252C159.201 242.4 163.468 232 172.001 220.8C174.006 218.17 175.978 215.515 177.917 212.836C183.678 204.862 188.373 197.65 192.001 191.2C192.429 190.978 192.837 190.721 193.222 190.432C195.407 188.83 198.6 185.486 202.801 180.4C205.497 177.124 208.086 173.761 210.562 170.316C213.274 166.546 215.888 162.706 218.401 158.8C223.734 150.533 228.401 142.933 232.401 136C235.464 130.692 237.354 126.634 238.071 123.827C238.272 123.101 238.383 122.353 238.401 121.6C238.428 116.731 236.367 112.083 232.74 108.834C231.062 107.273 229.202 105.918 227.201 104.8C222.768 102.267 218.616 100.485 214.747 99.456C212.288 98.7779 209.752 98.4229 207.201 98.4C202.207 98.3411 197.303 99.7342 193.086 102.41C190.242 104.256 187.714 106.548 185.601 109.2C179.734 116.4 174.801 125.2 170.801 135.6C170.302 136.896 169.812 138.195 169.331 139.498C166.934 145.954 164.767 152.493 162.833 159.103M256.001 46L257.601 46C263.494 41.417 270.182 37.9617 277.33 35.808C279.656 35.0901 282.016 34.4867 284.401 34C294.801 31.8667 304.534 30.5333 313.601 30L312.801 30.8C303.793 33.6828 295.542 38.5406 288.651 45.019C287.607 45.9839 286.59 46.9779 285.601 47.9999C277.601 56.2666 270.268 64 263.601 71.2C258.087 77.1547 253.029 80.647 248.428 81.677C247.5 81.8884 246.552 81.9967 245.601 82C245.211 81.9949 244.822 81.9716 244.434 81.93C242.362 81.7267 238.618 81.0833 233.201 80C232.103 79.7837 231.012 79.5312 229.93 79.243C226.753 78.3843 224.701 77.391 223.774 76.263C223.415 75.8588 223.212 75.3402 223.201 74.8C223.132 71.465 223.999 68.1774 225.703 65.31C227.109 63.0067 229.108 61.009 231.7 59.317C232.944 58.5122 234.248 57.8044 235.601 57.2C238.533 55.8812 241.428 54.4807 244.282 53.0001C248.761 50.6667 252.668 48.3333 256.001 46L256.001 46ZM256.001 122.4L256.001 119.2L275.201 96.8L275.201 96C277.053 94.1527 278.834 92.2346 280.538 90.2499C281.171 89.5104 281.793 88.7604 282.401 88.0001C284.534 85.3334 286.668 82.9333 288.801 80.8L296.001 76C301.868 76.5333 307.601 78 313.201 80.4C317.618 82.2782 321.071 85.8881 322.75 90.385C323.272 91.6883 323.69 93.0308 324.001 94.4L323.201 95.2C323.26 95.675 323.29 96.1533 323.29 96.632C323.29 99.6027 322.158 102.699 319.895 105.921C319.186 106.924 318.42 107.885 317.601 108.8C316.226 110.35 314.822 111.875 313.39 113.372C310.831 116.041 308.501 118.25 306.401 120C303.201 125.867 299.601 131.333 295.601 136.4C291.601 141.467 288.001 146.933 284.801 152.8L284.801 160.8L281.601 167.2L280.001 167.2C278.812 169.588 277.729 172.028 276.757 174.513C276.356 175.536 275.97 176.565 275.601 177.6C274.418 180.95 273.754 184.461 273.632 188.012C273.611 188.541 273.601 189.071 273.601 189.6L277.601 196C278.077 195.529 278.566 195.073 279.069 194.631C280.819 193.08 283.396 191.003 286.801 188.4C290.372 185.679 293.796 182.77 297.059 179.686C297.782 179 298.496 178.305 299.201 177.6C299.9 176.904 300.582 176.189 301.245 175.457C303.105 173.394 304.235 171.747 304.636 170.518C304.739 170.223 304.794 169.913 304.801 169.6L313.601 161.6C314.713 158.359 316.172 155.247 317.951 152.319C319.682 149.414 321.788 146.43 324.268 143.369C326.461 140.677 328.775 138.085 331.201 135.6C334.122 132.588 337.082 129.615 340.081 126.681C345.428 121.46 350.201 117.1 354.401 113.6L356.801 107.2C358.884 106.155 360.937 105.051 362.957 103.888C364.25 103.145 365.531 102.382 366.801 101.6C370.268 99.4668 373.868 98.4 377.601 98.4C381.868 98.4 385.734 99.4667 389.201 101.6C392.708 103.756 396.249 105.856 399.824 107.899C399.824 107.899 399.824 107.899 399.824 107.899C399.882 108.79 399.96 109.681 400.057 110.569C400.12 112.09 400.234 113.767 400.401 115.6C400.588 117.635 400.711 119.675 400.769 121.718C400.79 122.478 400.801 123.239 400.801 124C400.801 132.533 398.401 140.533 393.601 148C388.801 155.467 384.001 163.2 379.201 171.2C374.568 178.922 372.171 188.383 372.01 199.582C372.004 199.988 372.001 200.394 372.001 200.8C372.001 202.4 372.134 206 372.401 211.6C372.61 216.262 373.235 220.896 374.27 225.447C374.436 226.168 374.613 226.886 374.801 227.601C375.056 228.596 375.386 229.57 375.789 230.515C376.8 232.832 378.127 234.289 379.77 234.888C380.357 235.099 380.977 235.204 381.601 235.2L407.201 221.6L408.801 221.6C409.538 219.433 410.658 217.416 412.107 215.645C412.93 214.628 413.83 213.677 414.801 212.8C417.734 210.133 421.068 208.8 424.801 208.8L425.601 209.6C425.579 210.424 425.416 211.238 425.121 212.007C424.237 214.486 422.13 217.683 418.801 221.6C414.268 226.933 409.468 232 404.401 236.8C399.334 241.6 395.734 245.067 393.601 247.2C391.468 247.733 389.068 248.133 386.401 248.4C384.009 248.647 381.658 249.191 379.401 250.019C379.066 250.141 378.732 250.268 378.401 250.4L376.001 246.4C370.671 245.961 365.437 244.727 360.473 242.739C355.422 240.683 350.788 237.721 346.801 234C340.174 227.853 336.112 219.43 335.43 210.416C335.275 208.815 335.199 207.208 335.201 205.6C335.209 204.515 335.256 203.43 335.342 202.348C335.607 198.775 336.247 193.766 337.262 187.319C337.373 186.612 337.487 185.905 337.601 185.198C339.201 175.333 341.201 165.6 343.601 156C344.147 153.813 344.698 151.627 345.253 149.442C346.448 144.737 347.421 141.007 348.173 138.254C348.378 137.501 348.587 136.75 348.801 135.999C345.824 138.014 343.061 140.326 340.554 142.902C338.169 145.319 335.824 148.074 333.519 151.169C332.441 152.619 331.402 154.096 330.401 155.6C324.534 164.4 319.201 171.733 314.401 177.6C312.441 178.418 310.615 179.523 308.981 180.879C305.918 183.349 302.812 186.882 299.664 191.479C299.096 192.31 298.541 193.151 298.001 194C294.348 199.751 290.795 205.564 287.344 211.439C285.13 215.203 282.951 218.988 280.806 222.792C274.936 233.197 269.068 242.267 263.201 250C257.334 257.733 251.201 261.6 244.801 261.6C238.934 261.6 234.801 259.067 232.401 254C230.001 248.933 228.801 244 228.801 239.2C228.851 230.187 230.166 221.225 232.707 212.576C234.347 206.914 236.383 201.375 238.801 196C245.468 181.067 252.134 167.333 258.801 154.8C264.032 144.965 267.21 136.855 268.337 130.468C268.633 128.862 268.788 127.233 268.801 125.6C268.814 124.906 268.703 124.215 268.474 123.56C267.789 121.72 266.032 120.8 263.201 120.8C262.689 120.805 262.179 120.847 261.673 120.925C260.198 121.14 258.307 121.631 256.001 122.4L256.001 122.4Z" id="svgGroup" fill="#E63946" fill-rule="evenodd" stroke="#E63946" stroke-width="0.25" stroke-linecap="round" clip-path="url(#clip_1)" />
  </g>
</svg>